<svg id="Layer_1" data-name="Layer 1" xmlns="http://www.w3.org/2000/svg" viewBox="0 0 429.91 454.99"><defs><style>.cls-1{fill:#fff;}</style></defs><title>mag</title><path class="cls-1" d="M435.41,460.85a9.21,9.21,0,0,1-6.75-2.94l-165.29-178-.37.28a150.64,150.64,0,0,1-91.6,30.7c-83.81,0-152-68.19-152-152s68.19-152,152-152,152,68.19,152,152A151.24,151.24,0,0,1,281.22,264l-.33.34L445.9,442a9.19,9.19,0,0,1-.46,13h0l-3.7,3.43a9.09,9.09,0,0,1-6.26,2.46Zm-264-429a127,127,0,1,0,89.8,37.2,127,127,0,0,0-89.8-37.2Z" transform="translate(-18.91 -6.36)"/><path class="cls-1" d="M171.4,7.36A151.5,151.5,0,0,1,280.9,263.6l-.66.68.65.69,164.6,177.32a8.71,8.71,0,0,1-.45,12.3h0l-3.7,3.43a8.68,8.68,0,0,1-12.29-.44h0L264,279.87l-.62-.66-.72.55A151.5,151.5,0,1,1,171.4,7.36m0,279A127.49,127.49,0,1,0,81.24,249a127.48,127.48,0,0,0,90.16,37.34m0-280a152.5,152.5,0,1,0,91.91,274.2l165,177.69a9.69,9.69,0,0,0,13.71.51h0l3.7-3.44a9.69,9.69,0,0,0,.53-13.69l0,0L281.58,264.29A152.5,152.5,0,0,0,171.4,6.36Zm0,279a126.51,126.51,0,1,1,89.5-37A126.48,126.48,0,0,1,171.4,285.36Z" transform="translate(-18.91 -6.36)"/></svg>