<?xml version="1.0" encoding="utf-8"?>
<!-- Generator: Adobe Illustrator 23.0.2, SVG Export Plug-In . SVG Version: 6.00 Build 0)  -->
<svg version="1.1" id="Layer_1" xmlns="http://www.w3.org/2000/svg" xmlns:xlink="http://www.w3.org/1999/xlink" x="0px" y="0px"
	 viewBox="0 0 485.4 88" style="enable-background:new 0 0 485.4 88;" xml:space="preserve">
<style type="text/css">
	.st0{fill:#161616;}
	.st1{enable-background:new    ;}
	.st2{fill:#FFFFFF;}
	.st3{fill:#70B980;}
</style>
<title>roku_logo</title>
<rect x="3.3" class="st0" width="482" height="88"/>
<g class="st1">
	<path class="st2" d="M4.8,61.5V26.6h20.5v1.9H6.8v14.3h17.5v1.9H6.8v16.8H4.8z"/>
</g>
<g class="st1">
	<path class="st2" d="M31.9,61.5V26.6h2v33h18.6v1.9H31.9z"/>
</g>
<g class="st1">
	<path class="st2" d="M83.5,61.5l-4.2-9.7H60.1L56,61.5h-2.2l15-34.9h2l15,34.9H83.5z M60.9,49.9h17.6l-8.8-20.6L60.9,49.9z"/>
</g>
<g class="st1">
	<path class="st2" d="M95.3,60.8c-2-0.8-3.9-1.9-5.5-3.6l1-1.7c1.7,1.6,3.5,2.7,5.2,3.4c1.8,0.7,3.9,1,6.4,1c3.1,0,5.5-0.7,7.2-2
		c1.7-1.3,2.6-3.2,2.6-5.6c0-1.4-0.4-2.5-1.3-3.4c-0.9-0.9-1.9-1.5-3.2-2c-1.3-0.4-2.9-0.9-5-1.4c-2.8-0.7-4.9-1.3-6.5-1.8
		c-1.6-0.6-2.9-1.5-4.1-2.7c-1.2-1.3-1.8-3-1.8-5.2c0-1.9,0.5-3.6,1.5-5.1c1-1.5,2.4-2.6,4.2-3.4s3.9-1.2,6.4-1.2
		c4.8,0,8.7,1.6,11.7,4.7l-1,1.7c-1.7-1.5-3.3-2.7-5-3.4c-1.7-0.7-3.6-1.1-5.6-1.1c-3.1,0-5.6,0.7-7.3,2s-2.6,3.3-2.6,5.7
		c0,2.1,0.8,3.6,2.3,4.7c1.5,1,3.7,1.9,6.4,2.5l2.2,0.5c2.4,0.6,4.3,1.1,5.8,1.6c1.5,0.5,2.7,1.4,3.7,2.5c1,1.1,1.5,2.7,1.5,4.6
		c0,1.8-0.5,3.5-1.5,4.9s-2.4,2.5-4.2,3.3c-1.8,0.8-3.9,1.2-6.3,1.2C99.7,61.9,97.3,61.5,95.3,60.8z"/>
	<path class="st2" d="M123.6,26.6v16.2h23.5v1.9h-23.5v16.8h-2.1V26.6H123.6z M147.1,26.6h2.1v34.9h-2.1V26.6z"/>
</g>
<g class="st1">
	<path class="st2" d="M181.8,46.6c1.1,1.5,1.7,3.3,1.7,5.5c0,3.1-1,5.5-2.9,7.1c-1.9,1.6-4.7,2.4-8.4,2.4h-13.4V26.6h12.9
		c3.5,0,6.2,0.8,8.2,2.4c1.9,1.6,2.9,3.8,2.9,6.8c0,1.9-0.5,3.5-1.4,4.9c-1,1.3-2.3,2.3-4.1,3C179.1,44.1,180.7,45.1,181.8,46.6z
		 M160.8,42.8h10.6c3,0,5.2-0.6,6.8-1.9c1.5-1.2,2.3-3.1,2.3-5.4c0-4.6-3-7-9.1-7h-10.6V42.8z M179,57.8c1.5-1.2,2.2-3,2.2-5.5
		c0-5-3-7.5-9.1-7.5h-11.3v14.8h11.3C175.2,59.6,177.5,59,179,57.8z"/>
</g>
<g class="st1">
	<path class="st2" d="M217.8,61.5l-4.2-9.7h-19.3l-4.1,9.7h-2.2l15-34.9h2l15,34.9H217.8z M195.2,49.9h17.6L204,29.3L195.2,49.9z"/>
</g>
<g class="st1">
	<path class="st2" d="M231,59.8c-2.3-1.4-4.1-3.5-5.4-6.2c-1.3-2.7-1.9-5.9-1.9-9.6c0-3.7,0.6-6.9,1.9-9.5c1.3-2.7,3-4.7,5.4-6.1
		c2.3-1.4,5.1-2.1,8.3-2.1c4.9,0,8.9,1.6,11.9,4.7l-1,1.7c-1.7-1.6-3.4-2.7-5.1-3.4c-1.7-0.7-3.6-1-5.8-1c-4.2,0-7.5,1.4-9.8,4.1
		c-2.3,2.8-3.5,6.6-3.5,11.6c0,5,1.2,8.9,3.5,11.7c2.3,2.8,5.6,4.2,9.8,4.2c2.2,0,4.1-0.3,5.8-1c1.7-0.7,3.4-1.8,5.1-3.4l1,1.7
		c-3,3.1-7,4.7-11.9,4.7C236.1,61.9,233.4,61.2,231,59.8z"/>
	<path class="st2" d="M283.3,61.5h-3l-19.6-16.9v16.9h-2V26.6h2v16.3l18.5-16.3h2.9l-19.4,17.1L283.3,61.5z"/>
</g>
<rect x="301.4" y="49" class="st3" width="148" height="2"/>
<rect x="301.4" y="60" class="st3" width="63" height="2"/>
<rect x="301.4" y="38" class="st3" width="115" height="2"/>
<rect x="301.4" y="27" class="st3" width="180" height="2"/>
<g class="st1">
	<path class="st2" d="M27.5,75H27l-1-2.6c-0.1-0.4-0.3-0.6-0.6-0.8c-0.2-0.1-0.6-0.2-1-0.2H22V75h-0.5v-7.8h2.9
		c0.8,0,1.4,0.2,1.9,0.5c0.4,0.4,0.7,0.9,0.7,1.6c0,0.5-0.1,0.9-0.4,1.3c-0.3,0.3-0.6,0.6-1.1,0.7c0.2,0,0.4,0.1,0.6,0.3
		s0.3,0.4,0.4,0.7L27.5,75z M24.5,71c0.7,0,1.2-0.1,1.5-0.4s0.5-0.7,0.5-1.3c0-1.1-0.7-1.7-2-1.7H22V71H24.5z"/>
</g>
<g class="st1">
	<path class="st2" d="M30.3,74.6c-0.5-0.3-0.9-0.8-1.2-1.4c-0.3-0.6-0.4-1.3-0.4-2.1c0-0.8,0.1-1.5,0.4-2.1c0.3-0.6,0.7-1.1,1.2-1.4
		c0.5-0.3,1.1-0.5,1.8-0.5c0.7,0,1.3,0.2,1.8,0.5c0.5,0.3,0.9,0.8,1.2,1.4c0.3,0.6,0.4,1.3,0.4,2.1c0,0.8-0.1,1.5-0.4,2.1
		s-0.7,1.1-1.2,1.4S32.8,75,32.1,75C31.4,75,30.8,74.9,30.3,74.6z M34.3,73.7c0.5-0.6,0.8-1.5,0.8-2.6s-0.3-2-0.8-2.6
		s-1.2-0.9-2.2-0.9c-0.9,0-1.6,0.3-2.2,0.9c-0.5,0.6-0.8,1.5-0.8,2.6s0.3,2,0.8,2.6s1.2,0.9,2.2,0.9C33.1,74.6,33.8,74.3,34.3,73.7z
		"/>
</g>
<g class="st1">
	<path class="st2" d="M42.9,75h-0.7l-4.4-3.8V75h-0.5v-7.8h0.5v3.7l4.2-3.7h0.7L38.3,71L42.9,75z"/>
</g>
<g class="st1">
	<path class="st2" d="M44.6,74.3c-0.5-0.5-0.8-1.3-0.8-2.3v-4.9h0.5v4.9c0,1.7,0.8,2.5,2.5,2.5c0.8,0,1.4-0.2,1.9-0.6
		s0.6-1.1,0.6-1.9v-4.9h0.5V72c0,1-0.3,1.8-0.8,2.3c-0.5,0.5-1.2,0.8-2.2,0.8C45.8,75,45.1,74.8,44.6,74.3z"/>
</g>
<g class="st1">
	<path class="st2" d="M10.2,71.6c0.2,0.3,0.4,0.7,0.4,1.2c0,0.7-0.2,1.2-0.7,1.6c-0.5,0.4-1.2,0.6-2,0.6H4.1v-7.8h3.6
		c0.8,0,1.5,0.2,1.9,0.5s0.7,0.9,0.7,1.5c0,0.4-0.1,0.8-0.3,1.1c-0.2,0.3-0.5,0.5-0.9,0.7C9.6,71,10,71.3,10.2,71.6z M5.8,70.3h1.6
		c0.4,0,0.8-0.1,1-0.2c0.2-0.2,0.3-0.4,0.3-0.7c0-0.3-0.1-0.6-0.3-0.7s-0.5-0.2-1-0.2H5.8V70.3z M8.6,73.4C8.9,73.2,9,73,9,72.6
		c0-0.4-0.1-0.6-0.3-0.8s-0.5-0.2-1-0.2H5.8v2h1.8C8.1,73.6,8.4,73.6,8.6,73.4z"/>
</g>
<g class="st1">
	<path class="st2" d="M18.5,67.1l-3.2,4.8v3h-1.7v-3l-3.2-4.8h1.9l2.1,3.3l2.2-3.3H18.5z"/>
</g>
</svg>
