<?xml version="1.0" encoding="utf-8"?>
<!-- Generator: Adobe Illustrator 23.0.1, SVG Export Plug-In . SVG Version: 6.00 Build 0)  -->
<svg version="1.1" id="Layer_1" xmlns="http://www.w3.org/2000/svg" xmlns:xlink="http://www.w3.org/1999/xlink" x="0px" y="0px"
	 viewBox="0 0 187.6 186.6" style="enable-background:new 0 0 187.6 186.6;" xml:space="preserve">
<style type="text/css">
	.st0{fill:#70B980;}
	.st1{fill:#4C8757;}
</style>
<g>
	<path class="st0" d="M32.2,186.3h124c0-51.3-21.5-94.1-50.1-103.5c14-4.9,24.1-18.3,24.1-34c0-19.9-16.1-36-36-36s-36,16.1-36,36
		c0,15.7,10,29,24.1,34C53.7,92.3,32.2,135,32.2,186.3z"/>
</g>
<g>
	<path class="st1" d="M32.2,186.3h14c0,0-1.3-56.7,36-103.5c-21-25-18-54.5,12-70c-19.9,0-36,16.1-36,36c0,15.7,10,29,24.1,34
		C53.7,92.3,32.2,135,32.2,186.3z"/>
</g>
</svg>
